<?xml version="1.0" encoding="utf-8"?>
<!-- Generator: Adobe Illustrator 26.0.0, SVG Export Plug-In . SVG Version: 6.00 Build 0)  -->
<svg version="1.1" id="Camada_1" xmlns="http://www.w3.org/2000/svg" xmlns:xlink="http://www.w3.org/1999/xlink" x="0px" y="0px"
	 viewBox="0 0 360 500" style="enable-background:new 0 0 360 500;" xml:space="preserve">
<path d="M346.2,205.11c0.74,0.69,1.37,1.47,1.95,2.29c0.34,0.55,0.48,1.2,0.85,1.73c0.41,0.38,0.58,0.93,0.96,1.34
	c2.43,2.35,1.71,5.38,1.71,8.23c0,0.7-0.1,1.42-0.1,2.13c0,19.02,0,38.04,0,57.06c0,52.54,0.01,105.08-0.01,157.62
	c-0.01,10.6,0,21.19-0.03,31.79c-0.03,8.19-0.01,16.38,0.04,24.56c0.02,2.6-0.24,2.85-2.79,2.85c-53.95,0-107.9,0.01-161.85-0.02
	c-2.99,0-5.98-0.07-8.97,0.05c-0.48,0.11-0.97,0.16-1.47,0.13c-0.38-0.07-0.76-0.16-1.12-0.3c-0.19-0.09-0.38-0.15-0.59-0.16
	c-1.4,0.34-2.83,0.31-4.26,0.31c-53.92,0-107.84,0-161.76-0.01c-1.14,0-2.55,0.43-2.94-1.31c-0.2-4.17-0.18-8.35-0.14-12.51
	c0.21-25.8,0.14-51.6,0.04-77.4c-0.07-16.09-0.1-32.17-0.08-48.26c0-4.54,0.17-9.09,0.11-13.63c-0.16-13.71-0.18-27.42-0.13-41.13
	c0.02-4.54,0.11-9.09,0.08-13.62c-0.03-4.55-0.05-9.11-0.09-13.67c-0.04-5.26,0.23-10.51,0.13-15.76
	c-0.09-4.65-0.16-9.31-0.09-13.95c0.14-9.77,0.07-19.54,0.12-29.31c0-0.44-0.08-0.9,0.24-1.26c1.68-1.89,2.7-4.27,4.58-6
	c1.29-1.76,2.35-3.68,3.58-5.49c0.13-0.18,0.25-0.36,0.34-0.56c0.06-0.13,0.12-0.25,0.19-0.37c0.1-0.18,0.19-0.37,0.3-0.55
	c0.08-0.12,0.17-0.23,0.27-0.34c0.56-1.46,1.52-2.72,2.05-4.19c0.7-2.13,1.8-4.09,2.63-6.16c0.88-2.32,1.62-4.68,2.54-6.99
	c0.13-0.27,0.27-0.53,0.27-0.84c0-0.28,0.07-0.55,0.16-0.81c0.05-0.19,0.13-0.37,0.21-0.55c0.03-0.05,0.06-0.11,0.09-0.17
	c0.03-0.06,0.05-0.11,0.08-0.17c0.11-0.22,0.13-0.46,0.17-0.7c0.05-0.18,0.11-0.35,0.14-0.53c0.09-0.23,0.15-0.48,0.24-0.71
	c0.05-0.12,0.11-0.24,0.17-0.36c0.1-0.35,0.04-0.72,0.11-1.07c0.48-1.92,1.22-3.77,1.46-5.74c0.7-1.43,0.69-3.05,1.21-4.52
	c0.09-0.22,0.09-0.46,0.1-0.7c0.13-0.37,0.15-0.76,0.2-1.14c0.04-0.15,0.1-0.3,0.17-0.44c0.14-0.39,0.2-0.79,0.28-1.2
	c0.27-2.48,0.89-4.89,1.32-7.34c0.31-3,0.95-5.94,1.39-8.92c1.11-6.9,1.79-13.86,2.47-20.81c0.57-5.81,0.83-11.66,1.24-17.49
	c0.31-4.42,0.3-8.85,0.52-13.27c0.28-3.55,0.38-7.11,0.46-10.67c0.18-7.68-0.3-15.37-0.12-23.05c0.08-3.61,0.01-7.23,0.13-10.84
	c0.05-1.43,0.67-2.77,0.53-4.23c-0.07-0.74,0.63-0.99,1.16-1.24c2.62-1.24,5.24-2.5,7.83-3.79c3.07-1.5,6.08-3.1,9.23-4.43
	c1.33-0.93,2.85-1.44,4.32-2.05c1.89-0.8,3.63-1.9,5.58-2.58c2.16-1.15,4.35-2.23,6.6-3.19c0.12-0.09,0.25-0.17,0.38-0.25
	c0.29-0.11,0.58-0.2,0.82-0.4c3.31-1.68,6.74-3.09,10.06-4.75c1.71-1.01,3.63-1.59,5.32-2.63c2.28-1.16,4.69-2.04,6.91-3.31
	c2.8-1.19,5.46-2.69,8.23-3.95c1.71-0.62,3.25-1.61,4.91-2.34c1.54-0.55,3.07-1.12,4.34-2.2c0.67-0.4,1.38-0.61,2.18-0.58
	c1.59,0.06,3.19,0.06,4.78,0.07c0.71,0.01,1.26,0.28,1.71,0.83c3,3.71,5.99,7.41,9,11.11c2.56,3.15,5.16,6.27,7.72,9.41
	c2.6,3.18,5.19,6.38,7.78,9.56c2.46,3.02,4.93,6.03,7.39,9.04c2.57,3.14,5.15,6.27,7.72,9.41c2.64,3.23,5.26,6.46,7.89,9.69
	c3.35,4.13,6.7,8.25,10.06,12.38c0.45,0.55,0.86,1.13,1.56,1.59c1.27-1.52,2.54-3.01,3.78-4.53c1.73-2.12,3.43-4.27,5.15-6.4
	c3.48-4.29,6.97-8.58,10.46-12.87c2.35-2.89,4.73-5.75,7.08-8.64c3.53-4.33,7.04-8.67,10.57-13c2.56-3.14,5.16-6.25,7.72-9.4
	c4.02-4.92,8.01-9.86,12.03-14.79c0.9-1.1,1.86-2.14,2.8-3.2c1.59-0.36,3.23-0.41,4.82-0.74c0.76-0.15,1.4,0.12,2.01,0.49
	c2.7,1.67,5.72,2.71,8.5,4.21c0.27,0.19,0.56,0.32,0.87,0.44c0.15,0.04,0.31,0.09,0.45,0.16c3.27,1.59,6.5,3.26,9.78,4.84
	c1.85,0.94,3.88,1.5,5.6,2.71c10.01,4.78,20.04,9.52,29.98,14.44c2.77,1.26,5.49,2.64,8.24,3.95c0.56,0.28,1.15,0.52,1.72,0.79
	c1.99,0.61,3.81,1.56,5.58,2.62c0.41,0.31,0.93,0.37,1.36,0.63c0.66,0.4,1.36,0.71,2.08,1c0.5,0.21,0.96,0.48,1.34,0.87
	c1.14,1.55,1.22,3.4,1.26,5.17c0.06,2.63,0.26,5.26,0.22,7.9c-0.1,7.35,0.23,14.7,0.32,22.05c0,3.38-0.19,6.78,0.05,10.14
	c0.23,3.15,0.08,6.31,0.52,9.45c0.07,0.29,0.08,0.6,0.08,0.9c0.02,2.52-0.08,5.04,0.21,7.55c0.06,0.18,0.09,0.37,0.11,0.56
	c0.12,1.51-0.22,3.05,0.32,4.54c0.23,5.47,0.81,10.91,1.27,16.36c0.4,4.75,1.07,9.46,1.57,14.19c0.33,3.1,1.07,6.13,1.38,9.23
	c0.2,1.19,0.44,2.39,0.51,3.6c0.07,0.14,0.14,0.29,0.19,0.43c0.07,0.44,0.03,0.89,0.22,1.31c0.05,0.13,0.08,0.27,0.11,0.41
	c0.11,0.53-0.06,1.1,0.19,1.62c0.06,0.12,0.11,0.25,0.15,0.39c0.04,0.35,0.13,0.69,0.25,1.02c0.05,0.14,0.08,0.29,0.1,0.43
	c0.02,0.54,0.01,1.09,0.31,1.58c0.82,3.21,1.59,6.43,2.48,9.62c0.3,1.1,0.68,2.17,1.01,3.25c1.66,5.21,3.24,10.45,5.56,15.43
	c0.37,0.64,0.4,1.41,0.74,2.06C341.47,198.19,343.35,201.93,346.2,205.11z"/>
</svg>
