<?xml version="1.0" encoding="utf-8"?>
<!-- Generator: Adobe Illustrator 26.0.0, SVG Export Plug-In . SVG Version: 6.00 Build 0)  -->
<svg version="1.1" id="Camada_1" xmlns="http://www.w3.org/2000/svg" xmlns:xlink="http://www.w3.org/1999/xlink" x="0px" y="0px"
	 viewBox="0 0 360 500" style="enable-background:new 0 0 360 500;" xml:space="preserve">
<g>
	<path d="M250.65,5.74c5.66,2.75,11.31,5.5,16.97,8.25c7.12,3.47,14.23,6.93,21.34,10.41c4.48,2.19,8.95,4.41,13.43,6.6
		c6.04,2.95,12.09,5.89,18.14,8.83c0.59,0.28,1.18,0.55,1.76,0.84c0.82,0.41,1.3,1.08,1.56,1.97c0.43,1.47,0.6,2.97,0.62,4.5
		c0.22,13.13,0.37,26.27,0.69,39.4c0.18,7.38,0.6,14.75,0.98,22.12c0.22,4.33,0.49,8.67,0.89,12.99c0.59,6.26,1.18,12.53,2.02,18.76
		c0.95,7.09,2.09,14.15,3.68,21.14c2.04,9.01,4.71,17.81,8.24,26.35c0.91,2.2,1.81,4.41,2.72,6.61c1.09,2.63,2.55,5.06,4.44,7.16
		c1.84,2.04,2.98,4.53,4.7,6.62c0.83,1.01,0.76,2.21,0.76,3.41c-0.04,7.6-0.09,15.2-0.1,22.79c-0.01,10.53,0.07,21.06-0.01,31.58
		c-0.04,5.21,0.03,10.41-0.1,15.62c-0.18,7.48,0.05,14.97,0.06,22.45c0.01,12.59-0.02,25.18-0.02,37.77
		c0,10.74,0.04,21.49,0.04,32.23c0,18.02-0.02,36.03-0.02,54.05c0,14.43,0.02,28.87,0.03,43.3c0,5.64-0.01,11.29-0.02,16.93
		c0,0.65-0.02,1.31-0.1,1.95c-0.11,0.9-0.55,1.27-1.53,1.33c-0.76,0.05-1.52,0.03-2.28,0.03c-21.27,0.02-42.54,0.04-63.81,0.04
		c-31.04,0-62.08,0.02-93.12-0.07c-4.65-0.01-9.31,0.39-13.95-0.21c-26.47,0.61-52.95,0.19-79.42,0.27
		c-26.48,0.08-52.96,0.02-79.44,0.02c-1.95,0-3.91,0.02-5.86-0.03c-1.83-0.05-2.13-0.31-2.15-2.08c-0.05-3.69-0.03-7.38-0.03-11.07
		c0-5.43,0.01-10.85,0.01-16.28c0-82.93-0.01-165.87-0.01-248.8c0-0.76,0.02-1.52,0-2.28c-0.02-1,0.18-1.86,0.86-2.7
		c1.3-1.59,2.45-3.31,3.68-4.96c4.25-5.71,7.23-12.08,9.72-18.71c4.49-11.94,7.16-24.34,9.2-36.89c1.38-8.47,2.42-16.98,3.13-25.52
		c0.7-8.43,1.15-16.88,1.62-25.34c0.82-14.76,0.24-29.52,0.47-44.28c0.05-3.26,0.07-6.5,0.56-9.74c0.16-1.09,0.49-1.78,1.49-2.26
		c5.37-2.6,10.71-5.25,16.07-7.86c6.92-3.37,13.86-6.71,20.79-10.07c6.73-3.26,13.47-6.53,20.2-9.79c3.71-1.8,7.44-3.55,11.12-5.41
		c1.83-0.92,3.78-1.58,5.55-2.67c1.52-0.94,3.32-0.93,5.06-0.69c2.15,0.3,4.31,0.58,6.42,1.06c3.61,0.82,7.28,1.19,10.94,1.66
		c6.67,0.86,13.36,1.56,20.08,1.91c10.84,0.56,21.67,0.94,32.53,0.54c8.25-0.3,16.48-0.67,24.69-1.5c6.58-0.67,13.14-1.6,19.7-2.47
		c3.44-0.46,6.86-1.03,10.29-1.55c0.76-0.12,1.51-0.15,2.2,0.29C248.85,5,249.97,4.96,250.65,5.74z"/>
</g>
</svg>
